# xmcd
#
# Track frame offsets: 
#        180
#        18369
#        44508
#        72620
#
# Disc length: 1275 seconds
#
# Revision: 2
# Processed by: cddbd v1.5.2PL0 Copyright (c) Steve Scherf et al.
# Submitted via: ExactAudioCopy v0.95b4
#
DISCID=3404f904
DTITLE=Zhi Vago - With or Without You
DYEAR=1996
DGENRE=Dance
TTITLE0=With or Without You (FM Radio Mix )
TTITLE1=With or Without You (Eternal Heart Mix)
TTITLE2=With or Without You (Club Mix)
TTITLE3=Dreamer (Chuck Mellow Mix)
EXTD=
EXTT0=
EXTT1=
EXTT2=
EXTT3=
PLAYORDER=
